<?xml version="1.0" encoding="UTF-8"?>
<svg width="21px" height="21px" viewBox="0 0 21 21" version="1.1" xmlns="http://www.w3.org/2000/svg" xmlns:xlink="http://www.w3.org/1999/xlink">
    <title>upload</title>
    <g id="Desktop" stroke="none" stroke-width="1" fill="none" fill-rule="evenodd">
        <g id="11---BOOKING---DESIGN" transform="translate(-775.000000, -1092.000000)" fill="#000000" fill-rule="nonzero">
            <g id="::-item-copy-5" transform="translate(504.000000, 1077.000000)">
                <g id="upload" transform="translate(271.000000, 15.000000)">
                    <path d="M19.359375,13 L19.359375,18.5879397 C19.359375,19.0312764 18.9913828,19.3919598 18.5390625,19.3919598 L2.4609375,19.3919598 C2.00861719,19.3919598 1.640625,19.0312764 1.640625,18.5879397 L1.640625,13 L0,13 L0,18.5879397 C0,19.9179497 1.10397656,21 2.4609375,21 L18.5390625,21 C19.8960234,21 21,19.9179497 21,18.5879397 L21,13 L19.359375,13 Z" id="Path"></path>
                    <polygon id="Path" points="11 0 6 5.12136477 7.13787776 6.28686219 10.1953912 3.15513387 10.1953912 16 11.8046088 16 11.8046088 3.15513387 14.8621222 6.28686219 16 5.12136477"></polygon>
                </g>
            </g>
        </g>
    </g>
</svg>